<svg xmlns="http://www.w3.org/2000/svg" version="1.1" xmlns:xlink="http://www.w3.org/1999/xlink" xmlns:svgjs="http://svgjs.com/svgjs" width="42.666668" height="42.666668"><svg version="1.1" id="SvgjsSvg1017" width="42.666668" height="42.666668" viewBox="0 0 42.666668 42.666668" sodipodi:docname="TM_Icon.ai" xmlns:inkscape="http://www.inkscape.org/namespaces/inkscape" xmlns:sodipodi="http://sodipodi.sourceforge.net/DTD/sodipodi-0.dtd" xmlns="http://www.w3.org/2000/svg" xmlns:svg="http://www.w3.org/2000/svg">
  <defs id="SvgjsDefs1016">
    <clipPath clipPathUnits="userSpaceOnUse" id="SvgjsClipPath1015">
      <path d="M 0,32 H 32 V 0 H 0 Z" id="SvgjsPath1014"></path>
    </clipPath>
  </defs>
  <sodipodi:namedview id="SvgjsSodipodi:namedview1013" pagecolor="#ffffff" bordercolor="#000000" borderopacity="0.25" inkscape:showpageshadow="2" inkscape:pageopacity="0.0" inkscape:pagecheckerboard="0" inkscape:deskcolor="#d1d1d1"></sodipodi:namedview>
  <g id="SvgjsG1012" inkscape:groupmode="layer" inkscape:label="TM_Icon" transform="matrix(1.3333333,0,0,-1.3333333,0,42.666667)">
    <g id="SvgjsG1011">
      <g id="SvgjsG1010" clip-path="url(#clipPath16)">
        <g id="SvgjsG1009" transform="translate(3.1545,0.0788)">
          <path d="m 0,0 h 25.691 c 1.699,0 3.076,1.377 3.076,3.076 v 25.691 c 0,1.698 -1.377,3.075 -3.076,3.075 H 0 c -1.699,0 -3.076,-1.377 -3.076,-3.075 V 3.076 C -3.076,1.377 -1.699,0 0,0" style="fill:#275ed8;fill-opacity:1;fill-rule:nonzero;stroke:none" id="SvgjsPath1008"></path>
        </g>
        <g id="SvgjsG1007" transform="translate(15.2143,19.6806)">
          <path d="m 0,0 v 5.038 h 1.804 v -5.785 l -3.872,-3.872 -1.276,1.275 z m 0.765,-6.437 c 0.811,0.465 2.302,1.106 4.321,1.088 1.138,-0.011 2.156,-0.231 2.983,-0.5 1.162,1.519 1.852,3.416 1.852,5.476 0,4.981 -4.038,9.019 -9.019,9.019 -4.981,0 -9.019,-4.038 -9.019,-9.019 0,-2.021 0.664,-3.887 1.787,-5.39 0.637,0.197 1.361,0.354 2.153,0.413 2.347,0.175 4.121,-0.619 4.942,-1.087" style="fill:#ffffff;fill-opacity:1;fill-rule:nonzero;stroke:none" id="SvgjsPath1006"></path>
        </g>
        <g id="SvgjsG1005" transform="translate(25.1028,13.0467)">
          <path d="M 0,0 -0.155,0.083 C -0.538,0.286 -1.108,0.554 -1.819,0.785 -1.999,0.551 -2.19,0.325 -2.391,0.109 -1.681,-0.095 -1.1,-0.35 -0.692,-0.556 L 1.235,-7.59 c -1.182,0.629 -2.942,1.323 -4.975,1.348 -2.518,0.029 -4.368,-0.975 -5.365,-1.695 -0.911,0.653 -2.797,1.731 -5.317,1.731 -0.267,0 -0.541,-0.012 -0.821,-0.038 -1.661,-0.154 -3.108,-0.736 -4.2,-1.333 l 1.892,7.023 c 0.491,0.255 1.136,0.534 1.897,0.74 -0.199,0.219 -0.388,0.447 -0.565,0.685 -0.76,-0.236 -1.395,-0.531 -1.873,-0.79 l -0.154,-0.083 -2.525,-9.371 0.895,0.587 c 1.05,0.688 2.718,1.547 4.708,1.731 2.915,0.27 5.037,-1.108 5.814,-1.712 l 0.25,-0.195 0.25,0.195 c 0.834,0.652 2.606,1.74 5.104,1.71 2.42,-0.029 4.435,-1.097 5.421,-1.731 l 0.894,-0.575 z" style="fill:#ffffff;fill-opacity:1;fill-rule:nonzero;stroke:none" id="SvgjsPath1004"></path>
        </g>
        <g id="SvgjsG1003" transform="translate(11.0975,13.518)">
          <path d="m 0,0 c 2.341,0.175 4.044,-0.707 4.668,-1.094 l 0.215,-0.134 0.215,0.134 c 0.668,0.416 2.087,1.112 4.097,1.093 0.902,-0.009 1.722,-0.161 2.419,-0.361 0.202,0.216 0.392,0.441 0.572,0.676 C 11.359,0.583 10.341,0.802 9.203,0.813 7.184,0.832 5.692,0.19 4.882,-0.274 4.061,0.194 2.287,0.988 -0.061,0.812 -0.852,0.753 -1.576,0.597 -2.213,0.399 -2.036,0.162 -1.848,-0.067 -1.648,-0.285 -1.146,-0.149 -0.594,-0.044 0,0" style="fill:#ffffff;fill-opacity:1;fill-rule:nonzero;stroke:none" id="SvgjsPath1002"></path>
        </g>
        <g id="SvgjsG1001" transform="translate(15.5114,5.1086)">
          <path d="M 0,0 -0.017,7.87 0.955,7.872 0.973,0.002 Z" style="fill:#ffffff;fill-opacity:1;fill-rule:nonzero;stroke:none" id="SvgjsPath1000"></path>
        </g>
      </g>
    </g>
  </g>
</svg><style>@media (prefers-color-scheme: light) { :root { filter: none; } }
@media (prefers-color-scheme: dark) { :root { filter: none; } }
</style></svg>