<?xml version="1.0" standalone="no"?>
<!DOCTYPE svg PUBLIC "-//W3C//DTD SVG 20010904//EN"
 "http://www.w3.org/TR/2001/REC-SVG-20010904/DTD/svg10.dtd">
<svg version="1.0" xmlns="http://www.w3.org/2000/svg"
 width="4268.000000pt" height="4268.000000pt" viewBox="0 0 4268.000000 4268.000000"
 preserveAspectRatio="xMidYMid meet">
<metadata>
Created by potrace 1.14, written by Peter Selinger 2001-2017
</metadata>
<g transform="translate(0.000000,4268.000000) scale(0.100000,-0.100000)"
fill="#000000" stroke="none">
<path d="M3930 42674 c-620 -42 -1122 -172 -1627 -423 -1269 -632 -2118 -1850
-2275 -3266 -19 -179 -19 -35111 0 -35290 126 -1142 701 -2160 1609 -2853 611
-465 1334 -747 2113 -824 112 -11 3145 -13 17610 -13 16609 0 17483 1 17627
18 710 82 1323 307 1898 698 479 326 900 770 1200 1266 310 512 491 1038 572
1658 17 135 18 765 18 17695 0 16962 -1 17560 -18 17695 -82 627 -268 1162
-581 1672 -410 670 -1015 1218 -1718 1558 -430 208 -845 327 -1359 392 -125
16 -1271 17 -17579 18 -9595 1 -17465 0 -17490 -1z m18170 -4834 c1686 -88
3253 -495 4745 -1230 2385 -1176 4325 -3118 5500 -5505 634 -1289 1023 -2640
1174 -4080 47 -449 56 -633 56 -1245 0 -596 -5 -720 -46 -1155 -203 -2178
-994 -4245 -2304 -6026 l-122 -166 86 -28 c311 -100 875 -317 1243 -478 367
-161 1041 -496 1093 -543 16 -15 397 -1393 1733 -6273 942 -3439 1711 -6255
1709 -6257 -2 -3 -307 191 -678 429 -730 469 -860 550 -1158 721 -1793 1031
-3724 1676 -5581 1866 -2128 217 -4183 -156 -6071 -1101 -683 -341 -1247 -700
-1894 -1204 -121 -94 -226 -175 -232 -179 -8 -4 -86 50 -210 147 -695 541
-1291 917 -2028 1281 -1861 918 -3855 1300 -5860 1121 -1869 -167 -3794 -810
-5625 -1878 -313 -182 -557 -337 -1260 -799 -355 -233 -646 -421 -648 -418 -3
8 3365 12511 3376 12529 11 20 241 144 586 317 627 316 1200 554 1841 766 154
51 282 94 283 95 2 1 -48 73 -111 161 -1262 1748 -2031 3800 -2226 5940 -40
430 -46 579 -46 1122 0 543 6 690 46 1125 213 2343 1115 4575 2595 6425 303
379 500 597 894 990 466 467 813 770 1295 1131 1924 1443 4225 2276 6625 2398
232 12 998 12 1220 1z"/>
<path d="M20290 29652 l0 -3377 -2240 -2240 -2240 -2240 857 -857 858 -858
2592 2592 2593 2593 0 3882 0 3883 -1210 0 -1210 0 0 -3378z"/>
<path d="M15443 19133 c82 -2 212 -2 290 0 78 1 12 3 -148 3 -159 0 -223 -2
-142 -3z"/>
<path d="M15048 19123 c18 -2 45 -2 60 0 15 2 0 4 -33 4 -33 0 -45 -2 -27 -4z"/>
<path d="M16063 19123 c15 -2 39 -2 55 0 15 2 2 4 -28 4 -30 0 -43 -2 -27 -4z"/>
<path d="M14858 19113 c12 -2 32 -2 45 0 12 2 2 4 -23 4 -25 0 -35 -2 -22 -4z"/>
<path d="M16268 19113 c12 -2 30 -2 40 0 9 3 -1 5 -23 4 -22 0 -30 -2 -17 -4z"/>
<path d="M14713 19103 c9 -2 25 -2 35 0 9 3 1 5 -18 5 -19 0 -27 -2 -17 -5z"/>
<path d="M16423 19103 c9 -2 25 -2 35 0 9 3 1 5 -18 5 -19 0 -27 -2 -17 -5z"/>
<path d="M26873 19103 c64 -2 170 -2 235 0 64 1 11 3 -118 3 -129 0 -182 -2
-117 -3z"/>
<path d="M14583 19093 c9 -2 23 -2 30 0 6 3 -1 5 -18 5 -16 0 -22 -2 -12 -5z"/>
<path d="M16553 19093 c9 -2 23 -2 30 0 6 3 -1 5 -18 5 -16 0 -22 -2 -12 -5z"/>
<path d="M26478 19093 c17 -2 47 -2 65 0 17 2 3 4 -33 4 -36 0 -50 -2 -32 -4z"/>
<path d="M27448 19093 c18 -2 45 -2 60 0 15 2 0 4 -33 4 -33 0 -45 -2 -27 -4z"/>
<path d="M14473 19083 c9 -2 23 -2 30 0 6 3 -1 5 -18 5 -16 0 -22 -2 -12 -5z"/>
<path d="M16668 19083 c6 -2 18 -2 25 0 6 3 1 5 -13 5 -14 0 -19 -2 -12 -5z"/>
<path d="M26278 19083 c12 -2 32 -2 45 0 12 2 2 4 -23 4 -25 0 -35 -2 -22 -4z"/>
<path d="M27668 19083 c12 -2 32 -2 45 0 12 2 2 4 -23 4 -25 0 -35 -2 -22 -4z"/>
<path d="M14368 19073 c6 -2 18 -2 25 0 6 3 1 5 -13 5 -14 0 -19 -2 -12 -5z"/>
<path d="M16768 19073 c6 -2 18 -2 25 0 6 3 1 5 -13 5 -14 0 -19 -2 -12 -5z"/>
<path d="M26123 19073 c9 -2 25 -2 35 0 9 3 1 5 -18 5 -19 0 -27 -2 -17 -5z"/>
<path d="M27833 19073 c9 -2 25 -2 35 0 9 3 1 5 -18 5 -19 0 -27 -2 -17 -5z"/>
<path d="M14268 19063 c6 -2 18 -2 25 0 6 3 1 5 -13 5 -14 0 -19 -2 -12 -5z"/>
<path d="M16868 19063 c6 -2 18 -2 25 0 6 3 1 5 -13 5 -14 0 -19 -2 -12 -5z"/>
<path d="M25993 19063 c9 -2 23 -2 30 0 6 3 -1 5 -18 5 -16 0 -22 -2 -12 -5z"/>
<path d="M27973 19063 c9 -2 23 -2 30 0 6 3 -1 5 -18 5 -16 0 -22 -2 -12 -5z"/>
<path d="M14188 19053 c7 -3 16 -2 19 1 4 3 -2 6 -13 5 -11 0 -14 -3 -6 -6z"/>
<path d="M16958 19053 c7 -3 16 -2 19 1 4 3 -2 6 -13 5 -11 0 -14 -3 -6 -6z"/>
<path d="M25878 19053 c6 -2 18 -2 25 0 6 3 1 5 -13 5 -14 0 -19 -2 -12 -5z"/>
<path d="M28088 19053 c6 -2 18 -2 25 0 6 3 1 5 -13 5 -14 0 -19 -2 -12 -5z"/>
<path d="M14098 19043 c7 -3 16 -2 19 1 4 3 -2 6 -13 5 -11 0 -14 -3 -6 -6z"/>
<path d="M17038 19043 c7 -3 16 -2 19 1 4 3 -2 6 -13 5 -11 0 -14 -3 -6 -6z"/>
<path d="M25768 19043 c6 -2 18 -2 25 0 6 3 1 5 -13 5 -14 0 -19 -2 -12 -5z"/>
<path d="M28198 19043 c6 -2 18 -2 25 0 6 3 1 5 -13 5 -14 0 -19 -2 -12 -5z"/>
<path d="M17118 19033 c7 -3 16 -2 19 1 4 3 -2 6 -13 5 -11 0 -14 -3 -6 -6z"/>
<path d="M25678 19033 c6 -2 18 -2 25 0 6 3 1 5 -13 5 -14 0 -19 -2 -12 -5z"/>
<path d="M28298 19033 c6 -2 18 -2 25 0 6 3 1 5 -13 5 -14 0 -19 -2 -12 -5z"/>
<path d="M13948 19023 c7 -3 16 -2 19 1 4 3 -2 6 -13 5 -11 0 -14 -3 -6 -6z"/>
<path d="M25588 19023 c7 -3 16 -2 19 1 4 3 -2 6 -13 5 -11 0 -14 -3 -6 -6z"/>
<path d="M28388 19023 c6 -2 18 -2 25 0 6 3 1 5 -13 5 -14 0 -19 -2 -12 -5z"/>
<path d="M25508 19013 c7 -3 16 -2 19 1 4 3 -2 6 -13 5 -11 0 -14 -3 -6 -6z"/>
<path d="M28478 19013 c7 -3 16 -2 19 1 4 3 -2 6 -13 5 -11 0 -14 -3 -6 -6z"/>
<path d="M25428 19003 c7 -3 16 -2 19 1 4 3 -2 6 -13 5 -11 0 -14 -3 -6 -6z"/>
<path d="M28558 19003 c7 -3 16 -2 19 1 4 3 -2 6 -13 5 -11 0 -14 -3 -6 -6z"/>
<path d="M13738 18993 c7 -3 16 -2 19 1 4 3 -2 6 -13 5 -11 0 -14 -3 -6 -6z"/>
<path d="M17398 18993 c7 -3 16 -2 19 1 4 3 -2 6 -13 5 -11 0 -14 -3 -6 -6z"/>
<path d="M28638 18993 c7 -3 16 -2 19 1 4 3 -2 6 -13 5 -11 0 -14 -3 -6 -6z"/>
<path d="M25278 18983 c7 -3 16 -2 19 1 4 3 -2 6 -13 5 -11 0 -14 -3 -6 -6z"/>
<path d="M15190 18040 c-1655 -63 -3370 -507 -4922 -1277 -137 -67 -248 -125
-248 -128 0 -3 -569 -2118 -1265 -4700 -696 -2583 -1265 -4698 -1265 -4701 0
-2 73 34 163 81 1781 941 3541 1498 5322 1684 468 49 613 56 1230 56 618 0
742 -5 1192 -50 1237 -125 2439 -440 3618 -948 490 -211 1060 -504 1508 -774
l167 -101 0 911 c-1 2822 -21 8661 -31 8673 -5 7 -150 82 -322 168 -1590 793
-3360 1173 -5147 1106z"/>
<path d="M26635 18010 c-1611 -54 -3149 -448 -4484 -1149 l-183 -96 6 -2365
c3 -1301 9 -3457 12 -4791 l7 -2426 166 101 c888 536 1892 975 2886 1261 1666
480 3387 593 5155 339 1573 -226 3225 -763 4749 -1545 128 -66 237 -119 240
-117 4 2 -506 1877 -1134 4168 -628 2291 -1208 4409 -1289 4706 l-149 542
-216 105 c-1789 873 -3873 1331 -5766 1267z"/>
</g>
</svg>
